<svg width="39" height="38" viewBox="0 0 39 38" fill="none" xmlns="http://www.w3.org/2000/svg">
<rect width="38.8903" height="38" rx="19" fill="white"/>
<path d="M16.3748 13.6114V24.6102C16.3752 24.7216 16.4096 24.8307 16.4742 24.9259C16.5388 25.0211 16.6313 25.0988 16.7416 25.1505C16.8519 25.2022 16.9759 25.2261 17.1002 25.2195C17.2246 25.2129 17.3446 25.1761 17.4473 25.1131L26.3328 19.6137C26.7012 19.3858 26.7012 18.837 26.3328 18.6085L17.4473 13.1091C17.3448 13.0455 17.2247 13.0081 17.1002 13.0012C16.9756 12.9942 16.8513 13.0179 16.7408 13.0697C16.6302 13.1215 16.5377 13.1994 16.4732 13.2949C16.4087 13.3904 16.3746 13.4998 16.3748 13.6114Z" fill="#578C62"/>
</svg>
